# Signal mast arm — procedurally authored low-poly prop.
# Original work (RoadMaker); regenerate: scripts/gen_prop_meshes.py
mtllib mast_arm.mtl
o mast_arm_arm
usemtl arm
v 0.00000 -0.08000 0.00000
v 0.00000 0.08000 0.00000
v 7.20000 0.08000 0.00000
v 0.00000 -0.08000 0.00000
v 7.20000 0.08000 0.00000
v 7.20000 -0.08000 0.00000
v 0.00000 -0.08000 0.20000
v 7.20000 -0.08000 0.20000
v 7.20000 0.08000 0.20000
v 0.00000 -0.08000 0.20000
v 7.20000 0.08000 0.20000
v 0.00000 0.08000 0.20000
v 0.00000 -0.08000 0.00000
v 7.20000 -0.08000 0.00000
v 7.20000 -0.08000 0.20000
v 0.00000 -0.08000 0.00000
v 7.20000 -0.08000 0.20000
v 0.00000 -0.08000 0.20000
v 7.20000 0.08000 0.00000
v 0.00000 0.08000 0.00000
v 0.00000 0.08000 0.20000
v 7.20000 0.08000 0.00000
v 0.00000 0.08000 0.20000
v 7.20000 0.08000 0.20000
v 7.20000 -0.08000 0.00000
v 7.20000 0.08000 0.00000
v 7.20000 0.08000 0.20000
v 7.20000 -0.08000 0.00000
v 7.20000 0.08000 0.20000
v 7.20000 -0.08000 0.20000
v 0.00000 0.08000 0.00000
v 0.00000 -0.08000 0.00000
v 0.00000 -0.08000 0.20000
v 0.00000 0.08000 0.00000
v 0.00000 -0.08000 0.20000
v 0.00000 0.08000 0.20000
vn 0.00000 0.00000 -1.00000
vn 0.00000 0.00000 -1.00000
vn 0.00000 0.00000 -1.00000
vn 0.00000 0.00000 -1.00000
vn 0.00000 0.00000 -1.00000
vn 0.00000 0.00000 -1.00000
vn 0.00000 0.00000 1.00000
vn 0.00000 0.00000 1.00000
vn 0.00000 0.00000 1.00000
vn 0.00000 0.00000 1.00000
vn 0.00000 0.00000 1.00000
vn 0.00000 0.00000 1.00000
vn 0.00000 -1.00000 0.00000
vn 0.00000 -1.00000 0.00000
vn 0.00000 -1.00000 0.00000
vn 0.00000 -1.00000 0.00000
vn 0.00000 -1.00000 0.00000
vn 0.00000 -1.00000 0.00000
vn 0.00000 1.00000 0.00000
vn 0.00000 1.00000 0.00000
vn 0.00000 1.00000 0.00000
vn 0.00000 1.00000 -0.00000
vn 0.00000 1.00000 -0.00000
vn 0.00000 1.00000 -0.00000
vn 1.00000 0.00000 0.00000
vn 1.00000 0.00000 0.00000
vn 1.00000 0.00000 0.00000
vn 1.00000 0.00000 0.00000
vn 1.00000 0.00000 0.00000
vn 1.00000 0.00000 0.00000
vn -1.00000 0.00000 0.00000
vn -1.00000 0.00000 0.00000
vn -1.00000 0.00000 0.00000
vn -1.00000 0.00000 0.00000
vn -1.00000 0.00000 0.00000
vn -1.00000 0.00000 0.00000
f 1//1 2//2 3//3
f 4//4 5//5 6//6
f 7//7 8//8 9//9
f 10//10 11//11 12//12
f 13//13 14//14 15//15
f 16//16 17//17 18//18
f 19//19 20//20 21//21
f 22//22 23//23 24//24
f 25//25 26//26 27//27
f 28//28 29//29 30//30
f 31//31 32//32 33//33
f 34//34 35//35 36//36
